<?xml version="1.0" standalone="no"?>
<!DOCTYPE svg PUBLIC "-//W3C//DTD SVG 20010904//EN"
 "http://www.w3.org/TR/2001/REC-SVG-20010904/DTD/svg10.dtd">
<svg version="1.0" xmlns="http://www.w3.org/2000/svg"
 width="209.000000pt" height="73.000000pt" viewBox="0 0 209.000000 73.000000"
 preserveAspectRatio="xMidYMid meet">
<metadata>
Created by potrace 1.15, written by Peter Selinger 2001-2017
</metadata>
<g transform="translate(0.000000,73.000000) scale(0.100000,-0.100000)"
fill="#000000" stroke="none">
<path d="M1711 687 c-12 -24 -21 -48 -21 -55 0 -6 -4 -13 -8 -16 -4 -2 -8 7
-7 22 0 17 -6 28 -17 30 -25 5 -70 -43 -66 -71 3 -21 7 -22 118 -24 108 -2
116 -1 132 20 l18 22 0 -22 c0 -13 5 -23 10 -23 6 0 10 4 10 8 0 5 6 17 14 27
13 18 14 18 9 -8 -5 -24 -2 -27 22 -27 15 0 35 9 46 23 18 21 19 21 17 2 -3
-17 3 -20 37 -22 41 -3 65 14 65 46 0 11 -6 9 -20 -9 -20 -25 -20 -25 0 23 24
57 24 57 7 57 -7 0 -18 -15 -25 -33 -6 -18 -19 -42 -27 -52 -15 -18 -15 -17 0
12 20 42 20 41 -20 41 -31 0 -38 -5 -55 -36 -10 -21 -19 -33 -20 -29 0 4 6 20
14 36 l15 27 -58 2 c-57 2 -58 1 -75 -34 -9 -20 -19 -34 -22 -31 -3 3 2 19 11
36 14 27 14 31 1 31 -9 0 -22 -13 -31 -30 -9 -16 -18 -30 -21 -30 -2 0 2 14
11 30 15 28 14 30 -3 30 -11 0 -25 -14 -35 -35 -9 -19 -22 -35 -27 -35 -6 0
-8 6 -4 13 5 6 21 32 36 56 33 53 35 71 9 71 -13 0 -26 -15 -40 -43z"/>
<path d="M234 501 c-34 -16 -64 -36 -67 -46 -10 -25 -8 -170 2 -197 12 -32 56
-75 120 -116 l55 -35 45 24 c24 13 66 45 93 71 l48 47 0 110 0 109 -62 31
c-83 42 -149 42 -234 2z m196 -51 l40 -20 0 -79 0 -79 -39 -35 c-76 -68 -86
-68 -162 0 l-39 35 0 79 0 79 38 19 c48 26 113 26 162 1z"/>
<path d="M292 415 c-31 -22 -26 -65 8 -82 l25 -13 -27 0 c-24 0 -28 -4 -28
-29 0 -29 0 -29 60 -30 41 0 64 5 75 16 23 22 15 65 -15 80 l-25 13 28 0 c22
0 27 4 27 25 0 20 -5 25 -24 25 -13 0 -36 2 -52 6 -19 3 -37 -1 -52 -11z"/>
<path d="M837 502 c-24 -26 -21 -68 5 -86 l22 -16 -22 0 c-18 0 -22 -6 -22
-34 0 -33 1 -33 52 -39 35 -5 61 -2 80 7 15 8 28 10 28 5 0 -5 20 -9 45 -9 38
0 45 3 45 19 0 11 -6 22 -12 24 -7 3 1 6 18 6 28 1 31 -2 26 -24 -4 -24 -2
-25 42 -25 53 0 55 7 27 66 -10 21 -25 56 -32 77 -13 36 -15 38 -53 35 -38 -3
-39 -4 -65 -70 -14 -38 -29 -68 -32 -68 -4 0 -9 13 -12 28 -5 23 -15 32 -52
47 -33 12 -44 20 -36 28 7 7 16 6 29 -6 10 -9 28 -17 40 -17 18 0 22 6 22 29
0 26 -3 29 -46 35 -69 9 -79 8 -97 -12z"/>
<path d="M1170 499 c0 -7 16 -34 35 -60 38 -54 43 -69 20 -69 -8 0 -15 -9 -15
-20 0 -18 7 -20 55 -20 48 0 55 2 55 20 0 11 -4 20 -10 20 -18 0 -10 26 21 68
43 59 59 55 59 -13 0 -30 -4 -55 -10 -55 -5 0 -10 -9 -10 -20 0 -17 7 -20 50
-20 43 0 50 3 50 20 0 11 -4 20 -10 20 -5 0 -10 25 -10 55 0 30 5 55 10 55 6
0 10 7 10 15 0 12 -17 15 -96 15 -90 0 -96 -1 -91 -19 7 -29 -7 -45 -23 -26
-8 10 -9 15 -1 15 6 0 11 7 11 15 0 11 -12 15 -50 15 -31 0 -50 -4 -50 -11z"/>
<path d="M1485 420 l0 -90 68 0 c38 0 76 4 86 10 27 14 44 64 37 105 -10 50
-38 65 -121 65 l-70 0 0 -90z"/>
<path d="M1727 477 c-8 -17 -20 -49 -27 -70 -8 -20 -18 -37 -22 -37 -4 0 -8
-9 -8 -20 0 -17 7 -20 45 -20 38 0 45 3 45 19 0 11 -6 22 -12 24 -7 3 1 6 18
6 28 1 31 -2 26 -24 l-4 -25 91 0 c84 0 91 1 91 20 0 11 -4 20 -10 20 -5 0
-10 15 -9 33 0 31 1 31 27 -20 25 -50 28 -53 64 -53 l38 0 0 68 c0 37 3 77 6
90 6 20 3 22 -35 22 -30 0 -41 -4 -41 -15 0 -8 5 -15 10 -15 6 0 10 -15 10
-32 l-1 -33 -25 48 c-24 46 -25 47 -74 47 -38 0 -50 -4 -50 -15 0 -8 5 -15 10
-15 6 0 10 -25 10 -56 0 -78 -24 -71 -59 19 -26 66 -26 67 -63 67 -33 0 -39
-4 -51 -33z"/>
<path d="M826 223 c8 -83 8 -83 58 -83 51 0 66 16 66 69 0 17 5 31 11 31 8 0
10 -16 6 -50 l-6 -50 30 0 c29 0 30 2 25 33 l-6 32 17 -32 c13 -25 23 -33 45
-33 27 0 28 2 28 50 0 38 4 50 15 50 10 0 15 -11 15 -35 0 -19 -4 -35 -10 -35
-5 0 -10 -7 -10 -15 0 -11 11 -15 40 -15 29 0 40 4 40 15 0 8 -4 15 -10 15 -5
0 -10 16 -10 35 0 51 24 44 48 -15 17 -41 25 -50 45 -50 20 0 28 9 45 50 12
28 26 50 33 50 8 0 10 -15 6 -50 l-6 -50 101 0 100 0 -5 28 -6 27 12 -28 c11
-27 12 -28 92 -25 l80 3 3 30 c3 19 -2 33 -14 42 -16 12 -16 13 -1 13 11 0 17
8 17 25 0 23 -4 25 -43 25 -24 0 -48 -5 -55 -12 -18 -18 -15 -55 6 -67 16 -10
16 -10 0 -11 -10 0 -18 -6 -18 -12 0 -8 -7 -5 -15 6 -11 14 -12 23 -4 32 15
19 2 51 -24 58 -12 3 -84 6 -161 6 l-138 0 5 -28 c6 -32 -6 -64 -16 -40 -3 8
-3 26 0 41 l5 27 -107 0 -107 0 5 -32 6 -33 -15 33 c-14 32 -15 32 -84 32 -63
0 -70 -2 -70 -20 0 -11 5 -20 11 -20 6 0 9 -14 7 -32 -2 -21 -8 -33 -18 -33
-12 0 -15 12 -13 53 2 52 2 52 -27 52 l-30 0 6 -57z"/>
<path d="M1734 210 l1 -70 32 0 32 0 -5 53 c-2 28 -2 46 2 40 3 -7 14 -13 24
-13 10 0 21 6 23 13 3 6 6 -5 6 -25 1 -21 -3 -38 -9 -38 -5 0 -10 -7 -10 -15
0 -11 11 -15 40 -15 29 0 40 4 40 15 0 8 -4 15 -10 15 -5 0 -10 17 -9 38 0 20
3 31 6 25 6 -16 40 -17 45 -2 2 5 14 -4 27 -22 16 -21 20 -34 13 -37 -7 -2
-12 -10 -12 -18 0 -10 12 -14 40 -14 28 0 40 4 40 14 0 8 -5 16 -12 18 -12 4
19 68 34 68 4 0 8 9 8 20 0 19 -7 20 -173 20 l-173 0 0 -70z"/>
</g>
</svg>
